<?xml version="1.0" encoding="UTF-8" standalone="no"?>
<svg
   width="24"
   height="24"
   fill="currentColor"
   viewBox="0 0 24 24"
   version="1.1"
   id="svg1"
   sodipodi:docname="graduationcap.svg"
   inkscape:version="1.4.2 (f4327f4, 2025-05-13)"
   xmlns:inkscape="http://www.inkscape.org/namespaces/inkscape"
   xmlns:sodipodi="http://sodipodi.sourceforge.net/DTD/sodipodi-0.dtd"
   xmlns="http://www.w3.org/2000/svg"
   xmlns:svg="http://www.w3.org/2000/svg">
  <defs
     id="defs1" />
  <sodipodi:namedview
     id="namedview1"
     pagecolor="#505050"
     bordercolor="#eeeeee"
     borderopacity="1"
     inkscape:showpageshadow="0"
     inkscape:pageopacity="0"
     inkscape:pagecheckerboard="0"
     inkscape:deskcolor="#505050"
     inkscape:zoom="23.776465"
     inkscape:cx="11.229592"
     inkscape:cy="9.0215261"
     inkscape:window-width="1920"
     inkscape:window-height="1009"
     inkscape:window-x="-8"
     inkscape:window-y="-8"
     inkscape:window-maximized="1"
     inkscape:current-layer="svg1" />
  <path
     id="path1"
     d="M 10 2 L 10 4 L 12 4 L 14 4 L 14 2 L 12 2 L 10 2 z M 14 4 L 14 6 L 16 6 L 18 6 L 18 4 L 16 4 L 14 4 z M 18 6 L 18 8 L 20 8 L 22 8 L 22 6 L 20 6 L 18 6 z M 22 8 L 22 10 L 24 10 L 24 8 L 22 8 z M 22 10 L 20 10 L 18 10 L 18 12 L 16 12 L 14 12 L 14 14 L 16 14 L 18 14 L 18 16 L 18 18 L 20 18 L 20 16 L 20 14 L 20 12 L 22 12 L 22 10 z M 22 12 L 22 14 L 22 16 L 22 18 L 22 20 L 24 20 L 24 18 L 24 16 L 24 14 L 24 12 L 22 12 z M 18 18 L 16 18 L 14 18 L 14 20 L 16 20 L 18 20 L 18 18 z M 14 20 L 12 20 L 10 20 L 10 22 L 12 22 L 14 22 L 14 20 z M 10 20 L 10 18 L 8 18 L 6 18 L 6 20 L 8 20 L 10 20 z M 6 18 L 6 16 L 6 14 L 8 14 L 10 14 L 10 12 L 8 12 L 6 12 L 6 10 L 4 10 L 2 10 L 2 12 L 4 12 L 4 14 L 4 16 L 4 18 L 6 18 z M 2 10 L 2 8 L 0 8 L 0 10 L 2 10 z M 2 8 L 4 8 L 6 8 L 6 6 L 4 6 L 2 6 L 2 8 z M 6 6 L 8 6 L 10 6 L 10 4 L 8 4 L 6 4 L 6 6 z M 10 14 L 10 16 L 12 16 L 14 16 L 14 14 L 12 14 L 10 14 z " />
</svg>
