<?xml version="1.0" encoding="UTF-8" standalone="no"?>
<svg
   width="24"
   height="24"
   fill="currentColor"
   viewBox="0 0 24 24"
   version="1.1"
   id="svg1"
   sodipodi:docname="X.svg"
   inkscape:version="1.4.2 (f4327f4, 2025-05-13)"
   xmlns:inkscape="http://www.inkscape.org/namespaces/inkscape"
   xmlns:sodipodi="http://sodipodi.sourceforge.net/DTD/sodipodi-0.dtd"
   xmlns="http://www.w3.org/2000/svg"
   xmlns:svg="http://www.w3.org/2000/svg">
  <defs
     id="defs1" />
  <sodipodi:namedview
     id="namedview1"
     pagecolor="#505050"
     bordercolor="#eeeeee"
     borderopacity="1"
     inkscape:showpageshadow="0"
     inkscape:pageopacity="0"
     inkscape:pagecheckerboard="0"
     inkscape:deskcolor="#505050"
     inkscape:zoom="23.776465"
     inkscape:cx="11.608117"
     inkscape:cy="13.732066"
     inkscape:window-width="1920"
     inkscape:window-height="1009"
     inkscape:window-x="-8"
     inkscape:window-y="-8"
     inkscape:window-maximized="1"
     inkscape:current-layer="svg1" />
  <path
     d="m 11,11 h 2 v 2 h -2 z m 2,0 h -2 z m 0,-2 h 2 v 2 h -2 z m 2,0 h -2 z m 0,-2 h 2 v 2 h -2 z m 2,0 h -2 z m 0,-2 h 2 v 2 h -2 z m 2,0 h -2 z m -6,8 h 2 v 2 h -2 z m 2,0 h -2 z m 0,2 h 2 v 2 h -2 z m 2,0 h -2 z m 0,2 h 2 v 2 h -2 z m 2,0 H 17 Z M 9,13 h 2 v 2 H 9 Z m 2,0 H 9 Z m -4,2 h 2 v 2 H 7 Z m 2,0 H 7 Z m -4,2 h 2 v 2 H 5 Z m 2,0 H 5 Z M 9,9 h 2 v 2 H 9 Z m 2,0 H 9 Z M 7,7 H 9 V 9 H 7 Z M 9,7 H 7 Z M 5,5 H 7 V 7 H 5 Z M 7,5 H 5 Z"
     id="path1"
     sodipodi:nodetypes="cccccccccccccccccccccccccccccccccccccccccccccccccccccccccccccccccccccccccccccccccccccccccccccccccccccccc" />
</svg>
